PathFileType	4	(X/Y/Z)	/Users/itak/Documents/Research/Walk-IL/dataset/trc/00467_00167.trc
DataRate	CameraRate	NumFrames	NumMarkers	Units	OrigDataRate	OrigDataStartFrame	OrigNumFrames
100.000000	100.000000	4	53	mm	100.000000	152	608
Frame#	Time	RPSI			LPSI			L3			STRN			T10			C7			CLAV			RBAK			LBAK			LSHO			LUPA			LAEL			LAOL			LWTS			LWPS			LFRA			LIFD			LHPS			LHTS			RSHO			RUPA			RAEL			RAOL			RWTS			RWPS			RFRA			RIFD			RHTS			RHPS			RBHD			LFHD			RFHD			LBHD			LHIP			RHIP			RASI			LASI			LKNE			LTHI			LANK			LTIP			LTOE			LMT1			LMT5			LHEE			RKNE			RTHI			RANK			RTIP			RTOE			RMT1			RMT5			RHEE			
		X1	Y1	Z1	X2	Y2	Z2	X3	Y3	Z3	X4	Y4	Z4	X5	Y5	Z5	X6	Y6	Z6	X7	Y7	Z7	X8	Y8	Z8	X9	Y9	Z9	X10	Y10	Z10	X11	Y11	Z11	X12	Y12	Z12	X13	Y13	Z13	X14	Y14	Z14	X15	Y15	Z15	X16	Y16	Z16	X17	Y17	Z17	X18	Y18	Z18	X19	Y19	Z19	X20	Y20	Z20	X21	Y21	Z21	X22	Y22	Z22	X23	Y23	Z23	X24	Y24	Z24	X25	Y25	Z25	X26	Y26	Z26	X27	Y27	Z27	X28	Y28	Z28	X29	Y29	Z29	X30	Y30	Z30	X31	Y31	Z31	X32	Y32	Z32	X33	Y33	Z33	X34	Y34	Z34	X35	Y35	Z35	X36	Y36	Z36	X37	Y37	Z37	X38	Y38	Z38	X39	Y39	Z39	X40	Y40	Z40	X41	Y41	Z41	X42	Y42	Z42	X43	Y43	Z43	X44	Y44	Z44	X45	Y45	Z45	X46	Y46	Z46	X47	Y47	Z47	X48	Y48	Z48	X49	Y49	Z49	X50	Y50	Z50	X51	Y51	Z51	X52	Y52	Z52	X53	Y53	Z53	

153	1.52	-1214.6162109375	942.6936645507812	-487.7291259765625	-1191.601806640625	938.053466796875	-629.046630859375	-1192.936401367188	1048.365966796875	-534.1104125976562	-906.2484741210938	1233.56103515625	-503.2657165527344	-1198.006591796875	1172.757690429688	-534.935302734375	-1121.328125	1437.043823242188	-510.4532470703125	-938.3297119140625	1347.824829101562	-508.5548095703125	-1195.905395507812	1318.343505859375	-421.8324584960938	-1145.75927734375	1393.200927734375	-615.1387329101562	-1032.329223632812	1409.739379882812	-682.8650512695312	-1035.942993164062	1293.4189453125	-783.534423828125	-1024.345703125	1079.066040039062	-823.9329223632812	-1108.656127929688	1065.5400390625	-765.6043701171875	-951.545166015625	876.4619140625	-783.0122680664062	-996.04052734375	862.32958984375	-841.4951782226562	-1005.024658203125	991.3385009765625	-835.212158203125	-942.6587524414062	720.3195190429688	-804.77880859375	-987.2486572265625	786.1310424804688	-845.5084838867188	-933.4093627929688	793.7942504882812	-797.5703125	-1065.766845703125	1400.945434570312	-344.0789794921875	-1089.074829101562	1339.275268554688	-270.172607421875	-1088.82421875	1048.835205078125	-221.9483642578125	-1141.928588867188	1035.672973632812	-261.4483642578125	-997.1207885742188	841.77734375	-277.8854675292969	-1063.569213867188	827.4024658203125	-218.1695404052734	-1087.444946289062	989.7423706054688	-214.3906707763672	-999.6318359375	685.2542114257812	-267.4879455566406	-985.1502685546875	744.314453125	-268.1600036621094	-1050.933471679688	741.1162109375	-223.8141326904297	-1038.472900390625	1629.972900390625	-414.8748779296875	-894.9901123046875	1644.562866210938	-563.567626953125	-901.8564453125	1644.165161132812	-433.0863952636719	-1045.125732421875	1635.21435546875	-592.0802001953125	-1021.387084960938	850.925537109375	-724.5722045898438	-1120.375366210938	837.8718872070312	-332.740234375	-1007.12255859375	882.2192993164062	-375.862060546875	-955.1296997070312	892.7611083984375	-624.4058837890625	-865.384765625	460.3615417480469	-695.2347412109375	-880.4949951171875	617.059814453125	-704.8885498046875	-1131.768798828125	123.0253448486328	-747.3313598632812	-946.5537719726562	323.640625	-728.76953125	-923.4656372070312	53.39036560058594	-662.2573852539062	-993.9306640625	72.99410247802734	-638.0420532226562	-991.4231567382812	69.62441253662109	-749.1994018554688	-1175.336181640625	144.7757415771484	-686.1857299804688	-1078.808959960938	447.4483642578125	-379.1123657226562	-1071.319946289062	703.1785888671875	-327.6838684082031	-1220.119140625	47.86764144897461	-398.6722717285156	-1103.533569335938	301.8415832519531	-378.8720397949219	-1005.151184082031	48.01560211181641	-440.8619995117188	-1065.885864257812	46.73624420166016	-480.8901977539062	-1087.0625	50.21160125732422	-374.1624145507812	-1285.261840820312	38.61103057861328	-444.8759155273438	
154	1.53	-1211.246826171875	943.1674194335938	-486.5065612792969	-1188.274291992188	938.8387451171875	-627.8711547851562	-1189.833740234375	1048.755004882812	-532.4186401367188	-902.7650146484375	1233.814453125	-502.390380859375	-1195.082885742188	1173.298095703125	-532.9905395507812	-1117.734130859375	1437.400390625	-508.4098510742188	-934.885009765625	1348.086669921875	-507.4997863769531	-1192.135009765625	1318.755126953125	-419.627685546875	-1142.75830078125	1393.790283203125	-613.0798950195312	-1029.695922851562	1410.273803710938	-681.3280029296875	-1033.908325195312	1293.986328125	-781.9669189453125	-1022.57421875	1079.496704101562	-822.1146240234375	-1106.533447265625	1066.042236328125	-763.342041015625	-949.1882934570312	877.1051635742188	-781.0684814453125	-993.8590698242188	862.7916870117188	-839.4163208007812	-1003.125305175781	991.7874755859375	-833.3291015625	-940.1823120117188	720.96435546875	-802.559814453125	-984.9354858398438	786.624755859375	-843.312255859375	-930.8934936523438	794.4872436523438	-795.513427734375	-1061.509155273438	1401.044921875	-342.3832702636719	-1084.485961914062	1339.378784179688	-268.4224243164062	-1084.66357421875	1049.362670898438	-220.0000915527344	-1137.912963867188	1036.48974609375	-259.4571228027344	-995.4928588867188	840.8369140625	-274.2218017578125	-1061.995483398438	827.8380737304688	-214.7080230712891	-1083.853637695312	990.3700561523438	-212.1080627441406	-999.6449584960938	684.483642578125	-262.2572937011719	-984.4102783203125	743.3827514648438	-263.5963439941406	-1050.337158203125	741.4473266601562	-219.2927551269531	-1034.083129882812	1629.913940429688	-412.8204040527344	-890.8248291015625	1644.542236328125	-561.7265625	-897.4705200195312	1643.746215820312	-431.2374267578125	-1041.063598632812	1635.721313476562	-589.9901733398438	-1017.668151855469	852.5891723632812	-723.6024169921875	-1117.39453125	837.8348999023438	-331.8829040527344	-1003.91015625	882.0675048828125	-374.413818359375	-952.3123168945312	893.73095703125	-622.8467407226562	-856.1434936523438	463.9647521972656	-693.7405395507812	-873.6945190429688	620.5794677734375	-703.8623046875	-1119.900634765625	124.4059524536133	-743.4999389648438	-936.1177368164062	326.2125244140625	-726.4242553710938	-910.30126953125	55.96677398681641	-660.4595947265625	-980.9125366210938	75.15717315673828	-635.597900390625	-979.20654296875	72.37770843505859	-746.7407836914062	-1163.253662109375	145.4629364013672	-681.9874877929688	-1078.599487304688	447.408447265625	-378.6347351074219	-1069.268432617188	702.94140625	-326.7543334960938	-1220.102783203125	47.86990737915039	-398.6661987304688	-1103.445556640625	301.8152465820312	-378.6237487792969	-1005.177734375	48.01260375976562	-440.8684997558594	-1065.882568359375	46.74021148681641	-480.870849609375	-1087.0830078125	50.23960113525391	-374.1532592773438	-1285.2392578125	38.64925384521484	-444.8806762695312	
155	1.54	-1207.686889648438	943.695556640625	-485.4548645019531	-1184.703857421875	939.7109985351562	-626.856689453125	-1186.28173828125	1049.137451171875	-530.8259887695312	-899.2420043945312	1234.153686523438	-501.6316223144531	-1191.836669921875	1173.837036132812	-531.1249389648438	-1114.033325195312	1437.78564453125	-506.4449768066406	-931.3168334960938	1348.441772460938	-506.550048828125	-1188.193359375	1319.174560546875	-417.5067749023438	-1139.665771484375	1394.397583007812	-611.070068359375	-1026.997680664062	1410.877197265625	-679.8600463867188	-1031.842895507812	1294.656372070312	-780.4867553710938	-1020.782592773438	1080.011474609375	-820.3805541992188	-1104.3720703125	1066.642944335938	-761.1356201171875	-946.760498046875	877.8526000976562	-779.1893920898438	-991.5984497070312	863.327392578125	-837.3892211914062	-1001.198608398438	992.3242797851562	-831.5209350585938	-937.64892578125	721.6814575195312	-800.3584594726562	-982.56591796875	787.1993408203125	-841.1588745117188	-928.2366333007812	795.2776489257812	-793.496337890625	-1057.135009765625	1401.255126953125	-340.779541015625	-1079.768920898438	1339.617797851562	-266.756103515625	-1080.353149414062	1050.012573242188	-218.1910858154297	-1133.733520507812	1037.450927734375	-257.6378784179688	-993.8304443359375	839.9505004882812	-270.5746154785156	-1060.343139648438	828.429931640625	-211.37744140625	-1080.123291015625	991.1398315429688	-209.9800415039062	-999.6971435546875	683.8455200195312	-257.0615844726562	-983.6424560546875	742.5734252929688	-259.078369140625	-1049.736938476562	741.95361328125	-214.8785552978516	-1029.497802734375	1629.95263671875	-410.8893432617188	-886.5330200195312	1644.4990234375	-560.056884765625	-892.920654296875	1643.327270507812	-429.560791015625	-1036.862548828125	1636.312866210938	-588.03173828125	-1013.683898925781	854.30712890625	-722.6557006835938	-1114.319946289062	837.818603515625	-331.2112121582031	-1000.598510742188	881.91015625	-373.0304260253906	-949.23974609375	894.732421875	-621.2737426757812	-847.4238891601562	467.4433898925781	-692.3436889648438	-867.156982421875	624.0111083984375	-702.7627563476562	-1106.861206054688	124.4873428344727	-739.630615234375	-925.6146850585938	328.4219665527344	-724.2135620117188	-895.5101318359375	58.41292953491211	-659.0523681640625	-966.2571411132812	76.74201202392578	-633.427734375	-965.5578002929688	74.66239166259766	-744.5579833984375	-1149.963256835938	144.5520629882812	-677.6511840820312	-1078.451049804688	447.4030456542969	-378.2303161621094	-1067.203125	702.7244262695312	-325.9043579101562	-1220.084228515625	47.88050079345703	-398.6672668457031	-1103.424194335938	301.8390502929688	-378.3789367675781	-1005.203491210938	48.01202011108398	-440.8757019042969	-1065.876953125	46.73755264282227	-480.8516235351562	-1087.1044921875	50.27096557617188	-374.1461181640625	-1285.222900390625	38.69936370849609	-444.8832702636719	
156	1.55	-1203.9619140625	944.2554321289062	-484.5285339355469	-1180.951904296875	940.6155395507812	-625.9545288085938	-1182.347534179688	1049.495239257812	-529.3226928710938	-895.6481323242188	1234.532836914062	-500.97119140625	-1188.261962890625	1174.338012695312	-529.3167724609375	-1110.2158203125	1438.161254882812	-504.5561828613281	-927.6141357421875	1348.845825195312	-505.6892395019531	-1184.070190429688	1319.565185546875	-415.4631652832031	-1136.463134765625	1394.977661132812	-609.09375	-1024.205810546875	1411.505249023438	-678.4474487304688	-1029.730102539062	1295.390380859375	-779.0866088867188	-1018.973266601562	1080.581787109375	-818.745361328125	-1102.174438476562	1067.305297851562	-758.9967041015625	-944.2596435546875	878.678955078125	-777.3981323242188	-989.259521484375	863.9052734375	-835.427734375	-999.2481689453125	992.9153442382812	-829.8021850585938	-935.0361938476562	722.4338989257812	-798.198486328125	-980.1275634765625	787.8261108398438	-839.0682373046875	-925.3964233398438	796.1591186523438	-791.5482177734375	-1052.6337890625	1401.539428710938	-339.2610473632812	-1074.926635742188	1339.959228515625	-265.165283203125	-1075.917724609375	1050.743530273438	-216.4926910400391	-1129.41455078125	1038.507446289062	-255.9556732177734	-992.0511474609375	839.1373291015625	-267.0312194824219	-1058.5712890625	829.1384887695312	-208.1922912597656	-1076.265502929688	992.00537109375	-207.9860076904297	-999.7261352539062	683.332763671875	-251.9939422607422	-982.8005981445312	741.8716430664062	-254.6685943603516	-1049.072021484375	742.592529296875	-210.6367492675781	-1024.728393554688	1630.058227539062	-409.0851745605469	-882.1377563476562	1644.404052734375	-558.5704345703125	-888.2191162109375	1642.893676757812	-428.0691833496094	-1032.54052734375	1636.937866210938	-586.2089233398438	-1009.5078125	856.0040283203125	-721.7379150390625	-1111.150390625	837.8150634765625	-330.674560546875	-997.1795654296875	881.7258911132812	-371.7470397949219	-945.9365234375	895.7415161132812	-619.7434692382812	-839.1570434570312	470.7313537597656	-691.0108032226562	-860.835693359375	627.2959594726562	-701.5570068359375	-1092.669311523438	123.3587112426758	-735.8607177734375	-915.0103149414062	330.2510681152344	-722.15625	-879.2346801757812	60.67043304443359	-658.0800170898438	-950.08984375	77.71267700195312	-631.5900268554688	-950.5687255859375	76.46104431152344	-742.7155151367188	-1135.462280273438	142.1584320068359	-673.3279418945312	-1078.330932617188	447.417724609375	-377.8845520019531	-1065.0986328125	702.522705078125	-325.1310729980469	-1220.06640625	47.89604949951172	-398.6731567382812	-1103.44921875	301.9004516601562	-378.1261901855469	-1005.22900390625	48.01422882080078	-440.8805541992188	-1065.869750976562	46.73083877563477	-480.829833984375	-1087.127685546875	50.30239105224609	-374.1357116699219	-1285.215576171875	38.75861740112305	-444.8832092285156	
